G04 MADE WITH FRITZING*
G04 WWW.FRITZING.ORG*
G04 DOUBLE SIDED*
G04 HOLES PLATED*
G04 CONTOUR ON CENTER OF CONTOUR VECTOR*
%ASAXBY*%
%FSLAX23Y23*%
%MOIN*%
%OFA0B0*%
%SFA1.0B1.0*%
%ADD10C,0.072992*%
%ADD11C,0.085000*%
%ADD12C,0.103000*%
%ADD13R,0.065118X0.069055*%
%ADD14R,0.057244X0.053307*%
%ADD15R,0.072992X0.084803*%
%ADD16R,0.069055X0.065118*%
%ADD17R,0.072992X0.072992*%
%ADD18C,0.010000*%
%ADD19R,0.001000X0.001000*%
%LNMASK1*%
G90*
G70*
G54D10*
X877Y724D03*
X779Y724D03*
G54D11*
X149Y232D03*
X405Y232D03*
X149Y55D03*
X405Y55D03*
G54D12*
X444Y606D03*
X812Y238D03*
X444Y606D03*
X812Y238D03*
G54D13*
X247Y330D03*
X166Y330D03*
G54D14*
X129Y744D03*
X196Y744D03*
G54D13*
X129Y606D03*
X210Y606D03*
G54D15*
X109Y448D03*
X231Y448D03*
G54D16*
X70Y232D03*
X70Y313D03*
X70Y55D03*
X70Y135D03*
G54D17*
X877Y724D03*
G54D18*
G36*
X840Y422D02*
X628Y210D01*
X416Y422D01*
X628Y634D01*
X840Y422D01*
G37*
D02*
G54D19*
X443Y678D02*
X444Y678D01*
X442Y677D02*
X445Y677D01*
X441Y676D02*
X446Y676D01*
X440Y675D02*
X447Y675D01*
X439Y674D02*
X448Y674D01*
X438Y673D02*
X449Y673D01*
X437Y672D02*
X450Y672D01*
X436Y671D02*
X451Y671D01*
X435Y670D02*
X452Y670D01*
X434Y669D02*
X453Y669D01*
X433Y668D02*
X454Y668D01*
X432Y667D02*
X455Y667D01*
X431Y666D02*
X456Y666D01*
X430Y665D02*
X457Y665D01*
X429Y664D02*
X458Y664D01*
X428Y663D02*
X459Y663D01*
X427Y662D02*
X460Y662D01*
X426Y661D02*
X461Y661D01*
X425Y660D02*
X462Y660D01*
X424Y659D02*
X463Y659D01*
X423Y658D02*
X464Y658D01*
X422Y657D02*
X465Y657D01*
X421Y656D02*
X466Y656D01*
X420Y655D02*
X467Y655D01*
X419Y654D02*
X468Y654D01*
X418Y653D02*
X469Y653D01*
X417Y652D02*
X470Y652D01*
X416Y651D02*
X471Y651D01*
X415Y650D02*
X472Y650D01*
X414Y649D02*
X473Y649D01*
X413Y648D02*
X474Y648D01*
X412Y647D02*
X475Y647D01*
X411Y646D02*
X476Y646D01*
X410Y645D02*
X477Y645D01*
X409Y644D02*
X478Y644D01*
X408Y643D02*
X479Y643D01*
X407Y642D02*
X480Y642D01*
X406Y641D02*
X481Y641D01*
X405Y640D02*
X482Y640D01*
X404Y639D02*
X483Y639D01*
X403Y638D02*
X441Y638D01*
X446Y638D02*
X484Y638D01*
X402Y637D02*
X435Y637D01*
X452Y637D02*
X485Y637D01*
X401Y636D02*
X432Y636D01*
X455Y636D02*
X486Y636D01*
X400Y635D02*
X430Y635D01*
X457Y635D02*
X487Y635D01*
X399Y634D02*
X428Y634D01*
X459Y634D02*
X488Y634D01*
X398Y633D02*
X426Y633D01*
X461Y633D02*
X489Y633D01*
X397Y632D02*
X425Y632D01*
X462Y632D02*
X490Y632D01*
X396Y631D02*
X423Y631D01*
X463Y631D02*
X491Y631D01*
X395Y630D02*
X422Y630D01*
X464Y630D02*
X492Y630D01*
X394Y629D02*
X421Y629D01*
X466Y629D02*
X493Y629D01*
X393Y628D02*
X420Y628D01*
X467Y628D02*
X494Y628D01*
X392Y627D02*
X419Y627D01*
X467Y627D02*
X495Y627D01*
X391Y626D02*
X418Y626D01*
X468Y626D02*
X496Y626D01*
X390Y625D02*
X418Y625D01*
X469Y625D02*
X497Y625D01*
X389Y624D02*
X417Y624D01*
X470Y624D02*
X498Y624D01*
X388Y623D02*
X416Y623D01*
X471Y623D02*
X499Y623D01*
X387Y622D02*
X416Y622D01*
X471Y622D02*
X500Y622D01*
X386Y621D02*
X415Y621D01*
X472Y621D02*
X501Y621D01*
X385Y620D02*
X414Y620D01*
X472Y620D02*
X502Y620D01*
X384Y619D02*
X414Y619D01*
X473Y619D02*
X503Y619D01*
X383Y618D02*
X413Y618D01*
X473Y618D02*
X504Y618D01*
X382Y617D02*
X413Y617D01*
X474Y617D02*
X505Y617D01*
X381Y616D02*
X413Y616D01*
X474Y616D02*
X506Y616D01*
X380Y615D02*
X412Y615D01*
X474Y615D02*
X507Y615D01*
X379Y614D02*
X412Y614D01*
X475Y614D02*
X508Y614D01*
X378Y613D02*
X412Y613D01*
X475Y613D02*
X509Y613D01*
X377Y612D02*
X412Y612D01*
X475Y612D02*
X510Y612D01*
X376Y611D02*
X411Y611D01*
X475Y611D02*
X511Y611D01*
X375Y610D02*
X411Y610D01*
X475Y610D02*
X512Y610D01*
X374Y609D02*
X411Y609D01*
X476Y609D02*
X513Y609D01*
X373Y608D02*
X411Y608D01*
X476Y608D02*
X514Y608D01*
X372Y607D02*
X411Y607D01*
X476Y607D02*
X515Y607D01*
X371Y606D02*
X411Y606D01*
X476Y606D02*
X515Y606D01*
X372Y605D02*
X411Y605D01*
X476Y605D02*
X514Y605D01*
X373Y604D02*
X411Y604D01*
X476Y604D02*
X513Y604D01*
X374Y603D02*
X411Y603D01*
X476Y603D02*
X512Y603D01*
X375Y602D02*
X411Y602D01*
X475Y602D02*
X511Y602D01*
X376Y601D02*
X411Y601D01*
X475Y601D02*
X510Y601D01*
X377Y600D02*
X412Y600D01*
X475Y600D02*
X509Y600D01*
X378Y599D02*
X412Y599D01*
X475Y599D02*
X508Y599D01*
X379Y598D02*
X412Y598D01*
X475Y598D02*
X507Y598D01*
X380Y597D02*
X412Y597D01*
X474Y597D02*
X506Y597D01*
X381Y596D02*
X413Y596D01*
X474Y596D02*
X505Y596D01*
X382Y595D02*
X413Y595D01*
X473Y595D02*
X504Y595D01*
X383Y594D02*
X414Y594D01*
X473Y594D02*
X503Y594D01*
X384Y593D02*
X414Y593D01*
X473Y593D02*
X502Y593D01*
X385Y592D02*
X415Y592D01*
X472Y592D02*
X501Y592D01*
X386Y591D02*
X415Y591D01*
X472Y591D02*
X500Y591D01*
X387Y590D02*
X416Y590D01*
X471Y590D02*
X499Y590D01*
X388Y589D02*
X416Y589D01*
X470Y589D02*
X498Y589D01*
X389Y588D02*
X417Y588D01*
X470Y588D02*
X497Y588D01*
X390Y587D02*
X418Y587D01*
X469Y587D02*
X496Y587D01*
X391Y586D02*
X419Y586D01*
X468Y586D02*
X495Y586D01*
X392Y585D02*
X420Y585D01*
X467Y585D02*
X494Y585D01*
X393Y584D02*
X421Y584D01*
X466Y584D02*
X493Y584D01*
X394Y583D02*
X422Y583D01*
X465Y583D02*
X492Y583D01*
X395Y582D02*
X423Y582D01*
X464Y582D02*
X491Y582D01*
X396Y581D02*
X424Y581D01*
X463Y581D02*
X490Y581D01*
X397Y580D02*
X425Y580D01*
X461Y580D02*
X489Y580D01*
X398Y579D02*
X427Y579D01*
X460Y579D02*
X488Y579D01*
X399Y578D02*
X429Y578D01*
X458Y578D02*
X487Y578D01*
X400Y577D02*
X431Y577D01*
X456Y577D02*
X486Y577D01*
X401Y576D02*
X433Y576D01*
X453Y576D02*
X485Y576D01*
X402Y575D02*
X437Y575D01*
X450Y575D02*
X484Y575D01*
X403Y574D02*
X483Y574D01*
X404Y573D02*
X482Y573D01*
X405Y572D02*
X481Y572D01*
X406Y571D02*
X480Y571D01*
X407Y570D02*
X479Y570D01*
X408Y569D02*
X478Y569D01*
X409Y568D02*
X477Y568D01*
X410Y567D02*
X476Y567D01*
X411Y566D02*
X475Y566D01*
X412Y565D02*
X474Y565D01*
X413Y564D02*
X473Y564D01*
X414Y563D02*
X472Y563D01*
X415Y562D02*
X471Y562D01*
X416Y561D02*
X470Y561D01*
X417Y560D02*
X469Y560D01*
X418Y559D02*
X468Y559D01*
X419Y558D02*
X467Y558D01*
X420Y557D02*
X466Y557D01*
X421Y556D02*
X465Y556D01*
X422Y555D02*
X464Y555D01*
X423Y554D02*
X463Y554D01*
X424Y553D02*
X462Y553D01*
X425Y552D02*
X461Y552D01*
X426Y551D02*
X460Y551D01*
X427Y550D02*
X459Y550D01*
X428Y549D02*
X458Y549D01*
X429Y548D02*
X457Y548D01*
X430Y547D02*
X456Y547D01*
X431Y546D02*
X455Y546D01*
X432Y545D02*
X454Y545D01*
X433Y544D02*
X453Y544D01*
X434Y543D02*
X452Y543D01*
X435Y542D02*
X451Y542D01*
X436Y541D02*
X450Y541D01*
X437Y540D02*
X449Y540D01*
X438Y539D02*
X448Y539D01*
X439Y538D02*
X447Y538D01*
X440Y537D02*
X446Y537D01*
X441Y536D02*
X445Y536D01*
X442Y535D02*
X444Y535D01*
X443Y534D02*
X443Y534D01*
X811Y311D02*
X811Y311D01*
X810Y310D02*
X812Y310D01*
X809Y309D02*
X813Y309D01*
X808Y308D02*
X814Y308D01*
X807Y307D02*
X815Y307D01*
X806Y306D02*
X816Y306D01*
X805Y305D02*
X817Y305D01*
X804Y304D02*
X818Y304D01*
X803Y303D02*
X819Y303D01*
X802Y302D02*
X820Y302D01*
X801Y301D02*
X821Y301D01*
X800Y300D02*
X822Y300D01*
X799Y299D02*
X823Y299D01*
X798Y298D02*
X824Y298D01*
X797Y297D02*
X825Y297D01*
X796Y296D02*
X826Y296D01*
X795Y295D02*
X827Y295D01*
X794Y294D02*
X828Y294D01*
X793Y293D02*
X829Y293D01*
X792Y292D02*
X830Y292D01*
X791Y291D02*
X831Y291D01*
X790Y290D02*
X832Y290D01*
X789Y289D02*
X833Y289D01*
X788Y288D02*
X834Y288D01*
X787Y287D02*
X835Y287D01*
X786Y286D02*
X836Y286D01*
X785Y285D02*
X837Y285D01*
X784Y284D02*
X838Y284D01*
X783Y283D02*
X839Y283D01*
X782Y282D02*
X840Y282D01*
X781Y281D02*
X841Y281D01*
X780Y280D02*
X842Y280D01*
X779Y279D02*
X843Y279D01*
X778Y278D02*
X844Y278D01*
X777Y277D02*
X845Y277D01*
X776Y276D02*
X846Y276D01*
X775Y275D02*
X847Y275D01*
X774Y274D02*
X848Y274D01*
X773Y273D02*
X849Y273D01*
X772Y272D02*
X850Y272D01*
X771Y271D02*
X851Y271D01*
X770Y270D02*
X805Y270D01*
X817Y270D02*
X852Y270D01*
X769Y269D02*
X801Y269D01*
X821Y269D02*
X853Y269D01*
X768Y268D02*
X798Y268D01*
X823Y268D02*
X854Y268D01*
X767Y267D02*
X796Y267D01*
X825Y267D02*
X855Y267D01*
X766Y266D02*
X795Y266D01*
X827Y266D02*
X856Y266D01*
X765Y265D02*
X793Y265D01*
X829Y265D02*
X857Y265D01*
X764Y264D02*
X792Y264D01*
X830Y264D02*
X858Y264D01*
X763Y263D02*
X790Y263D01*
X831Y263D02*
X859Y263D01*
X762Y262D02*
X789Y262D01*
X832Y262D02*
X860Y262D01*
X761Y261D02*
X788Y261D01*
X834Y261D02*
X861Y261D01*
X760Y260D02*
X787Y260D01*
X835Y260D02*
X862Y260D01*
X759Y259D02*
X786Y259D01*
X835Y259D02*
X863Y259D01*
X758Y258D02*
X786Y258D01*
X836Y258D02*
X864Y258D01*
X757Y257D02*
X785Y257D01*
X837Y257D02*
X865Y257D01*
X756Y256D02*
X784Y256D01*
X838Y256D02*
X866Y256D01*
X755Y255D02*
X783Y255D01*
X838Y255D02*
X867Y255D01*
X754Y254D02*
X783Y254D01*
X839Y254D02*
X868Y254D01*
X753Y253D02*
X782Y253D01*
X840Y253D02*
X869Y253D01*
X752Y252D02*
X782Y252D01*
X840Y252D02*
X870Y252D01*
X751Y251D02*
X781Y251D01*
X841Y251D02*
X871Y251D01*
X750Y250D02*
X781Y250D01*
X841Y250D02*
X872Y250D01*
X749Y249D02*
X780Y249D01*
X841Y249D02*
X873Y249D01*
X748Y248D02*
X780Y248D01*
X842Y248D02*
X874Y248D01*
X747Y247D02*
X780Y247D01*
X842Y247D02*
X875Y247D01*
X746Y246D02*
X779Y246D01*
X842Y246D02*
X876Y246D01*
X745Y245D02*
X779Y245D01*
X843Y245D02*
X877Y245D01*
X744Y244D02*
X779Y244D01*
X843Y244D02*
X878Y244D01*
X743Y243D02*
X779Y243D01*
X843Y243D02*
X879Y243D01*
X742Y242D02*
X779Y242D01*
X843Y242D02*
X880Y242D01*
X741Y241D02*
X779Y241D01*
X843Y241D02*
X881Y241D01*
X740Y240D02*
X779Y240D01*
X843Y240D02*
X882Y240D01*
X739Y239D02*
X779Y239D01*
X843Y239D02*
X883Y239D01*
X739Y238D02*
X779Y238D01*
X843Y238D02*
X883Y238D01*
X740Y237D02*
X779Y237D01*
X843Y237D02*
X882Y237D01*
X741Y236D02*
X779Y236D01*
X843Y236D02*
X881Y236D01*
X742Y235D02*
X779Y235D01*
X843Y235D02*
X880Y235D01*
X743Y234D02*
X779Y234D01*
X843Y234D02*
X879Y234D01*
X744Y233D02*
X779Y233D01*
X843Y233D02*
X878Y233D01*
X745Y232D02*
X779Y232D01*
X842Y232D02*
X877Y232D01*
X746Y231D02*
X780Y231D01*
X842Y231D02*
X876Y231D01*
X747Y230D02*
X780Y230D01*
X842Y230D02*
X875Y230D01*
X748Y229D02*
X780Y229D01*
X842Y229D02*
X874Y229D01*
X749Y228D02*
X781Y228D01*
X841Y228D02*
X873Y228D01*
X750Y227D02*
X781Y227D01*
X841Y227D02*
X872Y227D01*
X751Y226D02*
X781Y226D01*
X840Y226D02*
X871Y226D01*
X752Y225D02*
X782Y225D01*
X840Y225D02*
X870Y225D01*
X753Y224D02*
X782Y224D01*
X839Y224D02*
X869Y224D01*
X754Y223D02*
X783Y223D01*
X839Y223D02*
X868Y223D01*
X755Y222D02*
X784Y222D01*
X838Y222D02*
X867Y222D01*
X756Y221D02*
X784Y221D01*
X837Y221D02*
X866Y221D01*
X757Y220D02*
X785Y220D01*
X837Y220D02*
X865Y220D01*
X758Y219D02*
X786Y219D01*
X836Y219D02*
X864Y219D01*
X759Y218D02*
X787Y218D01*
X835Y218D02*
X863Y218D01*
X760Y217D02*
X788Y217D01*
X834Y217D02*
X862Y217D01*
X761Y216D02*
X789Y216D01*
X833Y216D02*
X861Y216D01*
X762Y215D02*
X790Y215D01*
X832Y215D02*
X860Y215D01*
X763Y214D02*
X791Y214D01*
X831Y214D02*
X859Y214D01*
X764Y213D02*
X792Y213D01*
X830Y213D02*
X858Y213D01*
X765Y212D02*
X794Y212D01*
X828Y212D02*
X857Y212D01*
X766Y211D02*
X795Y211D01*
X827Y211D02*
X856Y211D01*
X767Y210D02*
X797Y210D01*
X825Y210D02*
X855Y210D01*
X768Y209D02*
X799Y209D01*
X822Y209D02*
X854Y209D01*
X769Y208D02*
X802Y208D01*
X820Y208D02*
X853Y208D01*
X770Y207D02*
X807Y207D01*
X814Y207D02*
X852Y207D01*
X771Y206D02*
X851Y206D01*
X772Y205D02*
X850Y205D01*
X773Y204D02*
X849Y204D01*
X774Y203D02*
X848Y203D01*
X775Y202D02*
X847Y202D01*
X776Y201D02*
X846Y201D01*
X777Y200D02*
X845Y200D01*
X778Y199D02*
X844Y199D01*
X779Y198D02*
X843Y198D01*
X780Y197D02*
X842Y197D01*
X781Y196D02*
X841Y196D01*
X782Y195D02*
X840Y195D01*
X783Y194D02*
X839Y194D01*
X784Y193D02*
X838Y193D01*
X785Y192D02*
X837Y192D01*
X786Y191D02*
X836Y191D01*
X787Y190D02*
X835Y190D01*
X788Y189D02*
X834Y189D01*
X789Y188D02*
X833Y188D01*
X790Y187D02*
X832Y187D01*
X791Y186D02*
X831Y186D01*
X792Y185D02*
X830Y185D01*
X793Y184D02*
X829Y184D01*
X794Y183D02*
X828Y183D01*
X795Y182D02*
X827Y182D01*
X796Y181D02*
X826Y181D01*
X797Y180D02*
X825Y180D01*
X798Y179D02*
X824Y179D01*
X799Y178D02*
X823Y178D01*
X800Y177D02*
X822Y177D01*
X801Y176D02*
X821Y176D01*
X802Y175D02*
X820Y175D01*
X803Y174D02*
X819Y174D01*
X804Y173D02*
X818Y173D01*
X805Y172D02*
X817Y172D01*
X806Y171D02*
X816Y171D01*
X807Y170D02*
X815Y170D01*
X808Y169D02*
X814Y169D01*
X809Y168D02*
X813Y168D01*
X810Y167D02*
X812Y167D01*
D02*
G04 End of Mask1*
M02*