G04 MADE WITH FRITZING*
G04 WWW.FRITZING.ORG*
G04 DOUBLE SIDED*
G04 HOLES PLATED*
G04 CONTOUR ON CENTER OF CONTOUR VECTOR*
%ASAXBY*%
%FSLAX23Y23*%
%MOIN*%
%OFA0B0*%
%SFA1.0B1.0*%
%ADD10C,0.075000*%
%ADD11C,0.062992*%
%ADD12C,0.093000*%
%ADD13R,0.055118X0.059055*%
%ADD14R,0.047244X0.043307*%
%ADD15R,0.062992X0.074803*%
%ADD16R,0.059055X0.055118*%
%ADD17R,0.062992X0.062992*%
%ADD18C,0.012000*%
%ADD19C,0.024000*%
%ADD20R,0.001000X0.001000*%
%LNCOPPER1*%
G90*
G70*
G54D10*
X286Y737D03*
G54D11*
X877Y724D03*
X779Y724D03*
G54D10*
X149Y232D03*
X405Y232D03*
X149Y55D03*
X405Y55D03*
G54D12*
X444Y606D03*
X812Y238D03*
X444Y606D03*
X812Y238D03*
G54D13*
X247Y330D03*
X166Y330D03*
G54D14*
X129Y744D03*
X196Y744D03*
G54D13*
X129Y606D03*
X210Y606D03*
G54D15*
X109Y448D03*
X231Y448D03*
G54D16*
X70Y232D03*
X70Y313D03*
X70Y55D03*
X70Y135D03*
G54D17*
X877Y724D03*
G54D18*
X94Y55D02*
X126Y55D01*
D02*
X179Y306D02*
X228Y212D01*
D02*
X228Y212D02*
X188Y133D01*
D02*
X188Y133D02*
X94Y135D01*
D02*
X244Y354D02*
X236Y417D01*
D02*
X213Y582D02*
X227Y480D01*
D02*
X198Y728D02*
X207Y630D01*
D02*
X345Y133D02*
X259Y306D01*
D02*
X578Y307D02*
X503Y133D01*
D02*
X503Y133D02*
X345Y133D01*
D02*
X129Y728D02*
X129Y630D01*
D02*
X113Y480D02*
X126Y582D01*
D02*
X76Y335D02*
X100Y417D01*
D02*
X94Y232D02*
X126Y232D01*
D02*
X708Y519D02*
X864Y708D01*
D02*
X766Y741D02*
X720Y803D01*
D02*
X168Y803D02*
X140Y760D01*
D02*
X720Y803D02*
X168Y803D01*
D02*
X365Y429D02*
X427Y567D01*
D02*
X400Y255D02*
X365Y429D01*
G54D19*
D02*
X115Y582D02*
X93Y584D01*
D02*
X877Y743D02*
X877Y751D01*
G36*
X40Y819D02*
X40Y349D01*
X64Y349D01*
X64Y353D01*
X66Y353D01*
X66Y359D01*
X68Y359D01*
X68Y367D01*
X70Y367D01*
X70Y373D01*
X72Y373D01*
X72Y381D01*
X74Y381D01*
X74Y401D01*
X68Y401D01*
X68Y495D01*
X100Y495D01*
X100Y511D01*
X102Y511D01*
X102Y527D01*
X104Y527D01*
X104Y543D01*
X106Y543D01*
X106Y567D01*
X92Y567D01*
X92Y645D01*
X114Y645D01*
X114Y711D01*
X96Y711D01*
X96Y775D01*
X132Y775D01*
X132Y779D01*
X134Y779D01*
X134Y781D01*
X136Y781D01*
X136Y785D01*
X138Y785D01*
X138Y789D01*
X140Y789D01*
X140Y791D01*
X142Y791D01*
X142Y795D01*
X144Y795D01*
X144Y797D01*
X146Y797D01*
X146Y819D01*
X40Y819D01*
G37*
D02*
G36*
X742Y819D02*
X742Y799D01*
X744Y799D01*
X744Y795D01*
X746Y795D01*
X746Y793D01*
X748Y793D01*
X748Y791D01*
X750Y791D01*
X750Y787D01*
X752Y787D01*
X752Y785D01*
X754Y785D01*
X754Y783D01*
X756Y783D01*
X756Y779D01*
X758Y779D01*
X758Y777D01*
X760Y777D01*
X760Y775D01*
X762Y775D01*
X762Y771D01*
X764Y771D01*
X764Y769D01*
X766Y769D01*
X766Y767D01*
X768Y767D01*
X768Y765D01*
X788Y765D01*
X788Y763D01*
X792Y763D01*
X792Y761D01*
X796Y761D01*
X796Y759D01*
X800Y759D01*
X800Y757D01*
X802Y757D01*
X802Y755D01*
X804Y755D01*
X804Y753D01*
X808Y753D01*
X808Y749D01*
X810Y749D01*
X810Y747D01*
X812Y747D01*
X812Y745D01*
X814Y745D01*
X814Y741D01*
X816Y741D01*
X816Y737D01*
X836Y737D01*
X836Y765D01*
X924Y765D01*
X924Y819D01*
X742Y819D01*
G37*
D02*
G36*
X230Y787D02*
X230Y713D01*
X228Y713D01*
X228Y711D01*
X146Y711D01*
X146Y685D01*
X446Y685D01*
X446Y683D01*
X768Y683D01*
X768Y685D01*
X764Y685D01*
X764Y687D01*
X760Y687D01*
X760Y689D01*
X756Y689D01*
X756Y691D01*
X754Y691D01*
X754Y693D01*
X752Y693D01*
X752Y695D01*
X750Y695D01*
X750Y697D01*
X748Y697D01*
X748Y699D01*
X746Y699D01*
X746Y701D01*
X744Y701D01*
X744Y705D01*
X742Y705D01*
X742Y709D01*
X740Y709D01*
X740Y713D01*
X738Y713D01*
X738Y753D01*
X736Y753D01*
X736Y755D01*
X734Y755D01*
X734Y759D01*
X732Y759D01*
X732Y761D01*
X730Y761D01*
X730Y763D01*
X728Y763D01*
X728Y767D01*
X726Y767D01*
X726Y769D01*
X724Y769D01*
X724Y771D01*
X722Y771D01*
X722Y775D01*
X720Y775D01*
X720Y777D01*
X718Y777D01*
X718Y779D01*
X716Y779D01*
X716Y783D01*
X714Y783D01*
X714Y785D01*
X712Y785D01*
X712Y787D01*
X230Y787D01*
G37*
D02*
G36*
X816Y709D02*
X816Y705D01*
X814Y705D01*
X814Y703D01*
X812Y703D01*
X812Y699D01*
X810Y699D01*
X810Y697D01*
X808Y697D01*
X808Y695D01*
X806Y695D01*
X806Y693D01*
X804Y693D01*
X804Y691D01*
X800Y691D01*
X800Y689D01*
X798Y689D01*
X798Y687D01*
X794Y687D01*
X794Y685D01*
X788Y685D01*
X788Y683D01*
X836Y683D01*
X836Y709D01*
X816Y709D01*
G37*
D02*
G36*
X146Y685D02*
X146Y645D01*
X248Y645D01*
X248Y567D01*
X140Y567D01*
X140Y555D01*
X138Y555D01*
X138Y541D01*
X136Y541D01*
X136Y525D01*
X134Y525D01*
X134Y495D01*
X272Y495D01*
X272Y401D01*
X354Y401D01*
X354Y409D01*
X352Y409D01*
X352Y419D01*
X350Y419D01*
X350Y435D01*
X352Y435D01*
X352Y439D01*
X354Y439D01*
X354Y445D01*
X356Y445D01*
X356Y449D01*
X358Y449D01*
X358Y453D01*
X360Y453D01*
X360Y457D01*
X362Y457D01*
X362Y463D01*
X364Y463D01*
X364Y467D01*
X366Y467D01*
X366Y471D01*
X368Y471D01*
X368Y475D01*
X370Y475D01*
X370Y481D01*
X372Y481D01*
X372Y485D01*
X374Y485D01*
X374Y489D01*
X376Y489D01*
X376Y493D01*
X378Y493D01*
X378Y499D01*
X380Y499D01*
X380Y503D01*
X382Y503D01*
X382Y507D01*
X384Y507D01*
X384Y511D01*
X386Y511D01*
X386Y517D01*
X388Y517D01*
X388Y521D01*
X390Y521D01*
X390Y525D01*
X392Y525D01*
X392Y531D01*
X394Y531D01*
X394Y535D01*
X396Y535D01*
X396Y539D01*
X398Y539D01*
X398Y543D01*
X400Y543D01*
X400Y549D01*
X402Y549D01*
X402Y569D01*
X400Y569D01*
X400Y571D01*
X398Y571D01*
X398Y573D01*
X396Y573D01*
X396Y575D01*
X394Y575D01*
X394Y577D01*
X392Y577D01*
X392Y579D01*
X390Y579D01*
X390Y581D01*
X388Y581D01*
X388Y583D01*
X386Y583D01*
X386Y585D01*
X384Y585D01*
X384Y587D01*
X382Y587D01*
X382Y589D01*
X380Y589D01*
X380Y591D01*
X378Y591D01*
X378Y593D01*
X376Y593D01*
X376Y595D01*
X374Y595D01*
X374Y597D01*
X372Y597D01*
X372Y599D01*
X370Y599D01*
X370Y601D01*
X368Y601D01*
X368Y603D01*
X366Y603D01*
X366Y605D01*
X364Y605D01*
X364Y607D01*
X366Y607D01*
X366Y609D01*
X368Y609D01*
X368Y611D01*
X370Y611D01*
X370Y613D01*
X372Y613D01*
X372Y615D01*
X374Y615D01*
X374Y617D01*
X376Y617D01*
X376Y619D01*
X378Y619D01*
X378Y621D01*
X380Y621D01*
X380Y623D01*
X382Y623D01*
X382Y625D01*
X384Y625D01*
X384Y627D01*
X386Y627D01*
X386Y629D01*
X388Y629D01*
X388Y631D01*
X390Y631D01*
X390Y633D01*
X392Y633D01*
X392Y635D01*
X394Y635D01*
X394Y637D01*
X396Y637D01*
X396Y639D01*
X398Y639D01*
X398Y641D01*
X400Y641D01*
X400Y643D01*
X402Y643D01*
X402Y645D01*
X404Y645D01*
X404Y647D01*
X406Y647D01*
X406Y649D01*
X408Y649D01*
X408Y651D01*
X410Y651D01*
X410Y653D01*
X412Y653D01*
X412Y655D01*
X414Y655D01*
X414Y657D01*
X416Y657D01*
X416Y659D01*
X418Y659D01*
X418Y661D01*
X420Y661D01*
X420Y663D01*
X422Y663D01*
X422Y665D01*
X424Y665D01*
X424Y667D01*
X426Y667D01*
X426Y669D01*
X428Y669D01*
X428Y671D01*
X430Y671D01*
X430Y673D01*
X432Y673D01*
X432Y675D01*
X434Y675D01*
X434Y677D01*
X436Y677D01*
X436Y679D01*
X438Y679D01*
X438Y681D01*
X440Y681D01*
X440Y683D01*
X442Y683D01*
X442Y685D01*
X146Y685D01*
G37*
D02*
G36*
X448Y683D02*
X448Y681D01*
X924Y681D01*
X924Y683D01*
X448Y683D01*
G37*
D02*
G36*
X448Y683D02*
X448Y681D01*
X924Y681D01*
X924Y683D01*
X448Y683D01*
G37*
D02*
G36*
X450Y681D02*
X450Y679D01*
X452Y679D01*
X452Y677D01*
X454Y677D01*
X454Y675D01*
X456Y675D01*
X456Y673D01*
X458Y673D01*
X458Y671D01*
X460Y671D01*
X460Y669D01*
X462Y669D01*
X462Y667D01*
X464Y667D01*
X464Y665D01*
X466Y665D01*
X466Y663D01*
X468Y663D01*
X468Y661D01*
X470Y661D01*
X470Y659D01*
X472Y659D01*
X472Y657D01*
X474Y657D01*
X474Y655D01*
X476Y655D01*
X476Y653D01*
X478Y653D01*
X478Y651D01*
X480Y651D01*
X480Y649D01*
X482Y649D01*
X482Y647D01*
X630Y647D01*
X630Y645D01*
X632Y645D01*
X632Y643D01*
X634Y643D01*
X634Y641D01*
X636Y641D01*
X636Y639D01*
X638Y639D01*
X638Y637D01*
X640Y637D01*
X640Y635D01*
X642Y635D01*
X642Y633D01*
X644Y633D01*
X644Y631D01*
X646Y631D01*
X646Y629D01*
X648Y629D01*
X648Y627D01*
X650Y627D01*
X650Y625D01*
X652Y625D01*
X652Y623D01*
X654Y623D01*
X654Y621D01*
X656Y621D01*
X656Y619D01*
X658Y619D01*
X658Y617D01*
X660Y617D01*
X660Y615D01*
X662Y615D01*
X662Y613D01*
X664Y613D01*
X664Y611D01*
X666Y611D01*
X666Y609D01*
X668Y609D01*
X668Y607D01*
X670Y607D01*
X670Y605D01*
X672Y605D01*
X672Y603D01*
X674Y603D01*
X674Y601D01*
X676Y601D01*
X676Y599D01*
X678Y599D01*
X678Y597D01*
X680Y597D01*
X680Y595D01*
X682Y595D01*
X682Y593D01*
X684Y593D01*
X684Y591D01*
X686Y591D01*
X686Y589D01*
X688Y589D01*
X688Y587D01*
X690Y587D01*
X690Y585D01*
X692Y585D01*
X692Y583D01*
X694Y583D01*
X694Y581D01*
X696Y581D01*
X696Y579D01*
X698Y579D01*
X698Y577D01*
X700Y577D01*
X700Y575D01*
X702Y575D01*
X702Y573D01*
X704Y573D01*
X704Y571D01*
X706Y571D01*
X706Y569D01*
X708Y569D01*
X708Y567D01*
X710Y567D01*
X710Y565D01*
X712Y565D01*
X712Y563D01*
X714Y563D01*
X714Y561D01*
X716Y561D01*
X716Y559D01*
X718Y559D01*
X718Y557D01*
X720Y557D01*
X720Y555D01*
X722Y555D01*
X722Y553D01*
X724Y553D01*
X724Y551D01*
X726Y551D01*
X726Y549D01*
X728Y549D01*
X728Y547D01*
X730Y547D01*
X730Y545D01*
X732Y545D01*
X732Y543D01*
X734Y543D01*
X734Y541D01*
X736Y541D01*
X736Y539D01*
X738Y539D01*
X738Y537D01*
X740Y537D01*
X740Y535D01*
X742Y535D01*
X742Y533D01*
X744Y533D01*
X744Y531D01*
X746Y531D01*
X746Y529D01*
X748Y529D01*
X748Y527D01*
X750Y527D01*
X750Y525D01*
X752Y525D01*
X752Y523D01*
X754Y523D01*
X754Y521D01*
X756Y521D01*
X756Y519D01*
X758Y519D01*
X758Y517D01*
X760Y517D01*
X760Y515D01*
X762Y515D01*
X762Y513D01*
X764Y513D01*
X764Y511D01*
X766Y511D01*
X766Y509D01*
X768Y509D01*
X768Y507D01*
X770Y507D01*
X770Y505D01*
X772Y505D01*
X772Y503D01*
X774Y503D01*
X774Y501D01*
X776Y501D01*
X776Y499D01*
X778Y499D01*
X778Y497D01*
X780Y497D01*
X780Y495D01*
X782Y495D01*
X782Y493D01*
X784Y493D01*
X784Y491D01*
X786Y491D01*
X786Y489D01*
X788Y489D01*
X788Y487D01*
X790Y487D01*
X790Y485D01*
X792Y485D01*
X792Y483D01*
X794Y483D01*
X794Y481D01*
X796Y481D01*
X796Y479D01*
X798Y479D01*
X798Y477D01*
X800Y477D01*
X800Y475D01*
X802Y475D01*
X802Y473D01*
X804Y473D01*
X804Y471D01*
X806Y471D01*
X806Y469D01*
X808Y469D01*
X808Y467D01*
X810Y467D01*
X810Y465D01*
X812Y465D01*
X812Y463D01*
X814Y463D01*
X814Y461D01*
X816Y461D01*
X816Y459D01*
X818Y459D01*
X818Y457D01*
X820Y457D01*
X820Y455D01*
X822Y455D01*
X822Y453D01*
X824Y453D01*
X824Y451D01*
X826Y451D01*
X826Y449D01*
X828Y449D01*
X828Y447D01*
X830Y447D01*
X830Y445D01*
X832Y445D01*
X832Y443D01*
X834Y443D01*
X834Y441D01*
X836Y441D01*
X836Y439D01*
X838Y439D01*
X838Y437D01*
X840Y437D01*
X840Y435D01*
X842Y435D01*
X842Y433D01*
X844Y433D01*
X844Y431D01*
X846Y431D01*
X846Y429D01*
X848Y429D01*
X848Y427D01*
X850Y427D01*
X850Y425D01*
X852Y425D01*
X852Y423D01*
X854Y423D01*
X854Y421D01*
X852Y421D01*
X852Y419D01*
X850Y419D01*
X850Y417D01*
X848Y417D01*
X848Y415D01*
X846Y415D01*
X846Y413D01*
X844Y413D01*
X844Y411D01*
X842Y411D01*
X842Y409D01*
X840Y409D01*
X840Y407D01*
X838Y407D01*
X838Y405D01*
X836Y405D01*
X836Y403D01*
X834Y403D01*
X834Y401D01*
X832Y401D01*
X832Y399D01*
X830Y399D01*
X830Y397D01*
X828Y397D01*
X828Y395D01*
X826Y395D01*
X826Y393D01*
X824Y393D01*
X824Y391D01*
X822Y391D01*
X822Y389D01*
X820Y389D01*
X820Y387D01*
X818Y387D01*
X818Y385D01*
X816Y385D01*
X816Y383D01*
X814Y383D01*
X814Y381D01*
X812Y381D01*
X812Y379D01*
X810Y379D01*
X810Y377D01*
X808Y377D01*
X808Y375D01*
X806Y375D01*
X806Y373D01*
X804Y373D01*
X804Y371D01*
X802Y371D01*
X802Y369D01*
X800Y369D01*
X800Y367D01*
X798Y367D01*
X798Y365D01*
X796Y365D01*
X796Y363D01*
X794Y363D01*
X794Y361D01*
X792Y361D01*
X792Y359D01*
X790Y359D01*
X790Y357D01*
X788Y357D01*
X788Y355D01*
X786Y355D01*
X786Y353D01*
X784Y353D01*
X784Y351D01*
X782Y351D01*
X782Y349D01*
X780Y349D01*
X780Y347D01*
X778Y347D01*
X778Y345D01*
X776Y345D01*
X776Y343D01*
X774Y343D01*
X774Y341D01*
X772Y341D01*
X772Y339D01*
X770Y339D01*
X770Y337D01*
X768Y337D01*
X768Y335D01*
X766Y335D01*
X766Y333D01*
X764Y333D01*
X764Y331D01*
X762Y331D01*
X762Y329D01*
X760Y329D01*
X760Y327D01*
X758Y327D01*
X758Y325D01*
X756Y325D01*
X756Y323D01*
X754Y323D01*
X754Y321D01*
X752Y321D01*
X752Y319D01*
X750Y319D01*
X750Y317D01*
X814Y317D01*
X814Y315D01*
X816Y315D01*
X816Y313D01*
X818Y313D01*
X818Y311D01*
X820Y311D01*
X820Y309D01*
X822Y309D01*
X822Y307D01*
X824Y307D01*
X824Y305D01*
X826Y305D01*
X826Y303D01*
X828Y303D01*
X828Y301D01*
X830Y301D01*
X830Y299D01*
X832Y299D01*
X832Y297D01*
X834Y297D01*
X834Y295D01*
X836Y295D01*
X836Y293D01*
X838Y293D01*
X838Y291D01*
X840Y291D01*
X840Y289D01*
X842Y289D01*
X842Y287D01*
X844Y287D01*
X844Y285D01*
X846Y285D01*
X846Y283D01*
X848Y283D01*
X848Y281D01*
X850Y281D01*
X850Y279D01*
X852Y279D01*
X852Y277D01*
X854Y277D01*
X854Y275D01*
X856Y275D01*
X856Y273D01*
X858Y273D01*
X858Y271D01*
X860Y271D01*
X860Y269D01*
X862Y269D01*
X862Y267D01*
X864Y267D01*
X864Y265D01*
X866Y265D01*
X866Y263D01*
X868Y263D01*
X868Y261D01*
X870Y261D01*
X870Y259D01*
X872Y259D01*
X872Y257D01*
X874Y257D01*
X874Y255D01*
X876Y255D01*
X876Y253D01*
X878Y253D01*
X878Y251D01*
X880Y251D01*
X880Y249D01*
X882Y249D01*
X882Y247D01*
X884Y247D01*
X884Y245D01*
X886Y245D01*
X886Y243D01*
X888Y243D01*
X888Y241D01*
X890Y241D01*
X890Y239D01*
X892Y239D01*
X892Y237D01*
X890Y237D01*
X890Y235D01*
X888Y235D01*
X888Y233D01*
X886Y233D01*
X886Y231D01*
X884Y231D01*
X884Y229D01*
X882Y229D01*
X882Y227D01*
X880Y227D01*
X880Y225D01*
X878Y225D01*
X878Y223D01*
X876Y223D01*
X876Y221D01*
X874Y221D01*
X874Y219D01*
X872Y219D01*
X872Y217D01*
X870Y217D01*
X870Y215D01*
X868Y215D01*
X868Y213D01*
X866Y213D01*
X866Y211D01*
X864Y211D01*
X864Y209D01*
X862Y209D01*
X862Y207D01*
X860Y207D01*
X860Y205D01*
X858Y205D01*
X858Y203D01*
X856Y203D01*
X856Y201D01*
X854Y201D01*
X854Y199D01*
X852Y199D01*
X852Y197D01*
X850Y197D01*
X850Y195D01*
X848Y195D01*
X848Y193D01*
X846Y193D01*
X846Y191D01*
X844Y191D01*
X844Y189D01*
X842Y189D01*
X842Y187D01*
X840Y187D01*
X840Y185D01*
X838Y185D01*
X838Y183D01*
X836Y183D01*
X836Y181D01*
X834Y181D01*
X834Y179D01*
X832Y179D01*
X832Y177D01*
X830Y177D01*
X830Y175D01*
X828Y175D01*
X828Y173D01*
X826Y173D01*
X826Y171D01*
X824Y171D01*
X824Y169D01*
X822Y169D01*
X822Y167D01*
X820Y167D01*
X820Y165D01*
X818Y165D01*
X818Y163D01*
X816Y163D01*
X816Y161D01*
X814Y161D01*
X814Y159D01*
X924Y159D01*
X924Y681D01*
X450Y681D01*
G37*
D02*
G36*
X484Y647D02*
X484Y645D01*
X486Y645D01*
X486Y643D01*
X488Y643D01*
X488Y641D01*
X490Y641D01*
X490Y639D01*
X492Y639D01*
X492Y637D01*
X494Y637D01*
X494Y635D01*
X496Y635D01*
X496Y633D01*
X498Y633D01*
X498Y631D01*
X500Y631D01*
X500Y629D01*
X502Y629D01*
X502Y627D01*
X504Y627D01*
X504Y625D01*
X506Y625D01*
X506Y623D01*
X508Y623D01*
X508Y621D01*
X510Y621D01*
X510Y619D01*
X512Y619D01*
X512Y617D01*
X514Y617D01*
X514Y615D01*
X516Y615D01*
X516Y613D01*
X518Y613D01*
X518Y611D01*
X520Y611D01*
X520Y609D01*
X522Y609D01*
X522Y607D01*
X524Y607D01*
X524Y605D01*
X522Y605D01*
X522Y603D01*
X520Y603D01*
X520Y601D01*
X518Y601D01*
X518Y599D01*
X516Y599D01*
X516Y597D01*
X514Y597D01*
X514Y595D01*
X512Y595D01*
X512Y593D01*
X510Y593D01*
X510Y591D01*
X508Y591D01*
X508Y589D01*
X506Y589D01*
X506Y587D01*
X504Y587D01*
X504Y585D01*
X502Y585D01*
X502Y583D01*
X500Y583D01*
X500Y581D01*
X498Y581D01*
X498Y579D01*
X496Y579D01*
X496Y577D01*
X494Y577D01*
X494Y575D01*
X492Y575D01*
X492Y573D01*
X490Y573D01*
X490Y571D01*
X488Y571D01*
X488Y569D01*
X486Y569D01*
X486Y567D01*
X484Y567D01*
X484Y565D01*
X482Y565D01*
X482Y563D01*
X480Y563D01*
X480Y561D01*
X478Y561D01*
X478Y559D01*
X476Y559D01*
X476Y557D01*
X474Y557D01*
X474Y555D01*
X472Y555D01*
X472Y553D01*
X470Y553D01*
X470Y551D01*
X468Y551D01*
X468Y549D01*
X466Y549D01*
X466Y547D01*
X464Y547D01*
X464Y545D01*
X462Y545D01*
X462Y543D01*
X460Y543D01*
X460Y541D01*
X458Y541D01*
X458Y539D01*
X456Y539D01*
X456Y537D01*
X454Y537D01*
X454Y535D01*
X452Y535D01*
X452Y533D01*
X450Y533D01*
X450Y531D01*
X448Y531D01*
X448Y529D01*
X446Y529D01*
X446Y527D01*
X426Y527D01*
X426Y523D01*
X424Y523D01*
X424Y519D01*
X422Y519D01*
X422Y515D01*
X420Y515D01*
X420Y509D01*
X418Y509D01*
X418Y505D01*
X416Y505D01*
X416Y501D01*
X414Y501D01*
X414Y497D01*
X412Y497D01*
X412Y491D01*
X410Y491D01*
X410Y487D01*
X408Y487D01*
X408Y483D01*
X406Y483D01*
X406Y479D01*
X404Y479D01*
X404Y473D01*
X402Y473D01*
X402Y469D01*
X400Y469D01*
X400Y465D01*
X398Y465D01*
X398Y461D01*
X396Y461D01*
X396Y455D01*
X394Y455D01*
X394Y451D01*
X392Y451D01*
X392Y447D01*
X390Y447D01*
X390Y443D01*
X388Y443D01*
X388Y437D01*
X386Y437D01*
X386Y433D01*
X384Y433D01*
X384Y423D01*
X404Y423D01*
X404Y425D01*
X406Y425D01*
X406Y427D01*
X408Y427D01*
X408Y429D01*
X410Y429D01*
X410Y431D01*
X412Y431D01*
X412Y433D01*
X414Y433D01*
X414Y435D01*
X416Y435D01*
X416Y437D01*
X418Y437D01*
X418Y439D01*
X420Y439D01*
X420Y441D01*
X422Y441D01*
X422Y443D01*
X424Y443D01*
X424Y445D01*
X426Y445D01*
X426Y447D01*
X428Y447D01*
X428Y449D01*
X430Y449D01*
X430Y451D01*
X432Y451D01*
X432Y453D01*
X434Y453D01*
X434Y455D01*
X436Y455D01*
X436Y457D01*
X438Y457D01*
X438Y459D01*
X440Y459D01*
X440Y461D01*
X442Y461D01*
X442Y463D01*
X444Y463D01*
X444Y465D01*
X446Y465D01*
X446Y467D01*
X448Y467D01*
X448Y469D01*
X450Y469D01*
X450Y471D01*
X452Y471D01*
X452Y473D01*
X454Y473D01*
X454Y475D01*
X456Y475D01*
X456Y477D01*
X458Y477D01*
X458Y479D01*
X460Y479D01*
X460Y481D01*
X462Y481D01*
X462Y483D01*
X464Y483D01*
X464Y485D01*
X466Y485D01*
X466Y487D01*
X468Y487D01*
X468Y489D01*
X470Y489D01*
X470Y491D01*
X472Y491D01*
X472Y493D01*
X474Y493D01*
X474Y495D01*
X476Y495D01*
X476Y497D01*
X478Y497D01*
X478Y499D01*
X480Y499D01*
X480Y501D01*
X482Y501D01*
X482Y503D01*
X484Y503D01*
X484Y505D01*
X486Y505D01*
X486Y507D01*
X488Y507D01*
X488Y509D01*
X490Y509D01*
X490Y511D01*
X492Y511D01*
X492Y513D01*
X494Y513D01*
X494Y515D01*
X496Y515D01*
X496Y517D01*
X498Y517D01*
X498Y519D01*
X500Y519D01*
X500Y521D01*
X502Y521D01*
X502Y523D01*
X504Y523D01*
X504Y525D01*
X506Y525D01*
X506Y527D01*
X508Y527D01*
X508Y529D01*
X510Y529D01*
X510Y531D01*
X512Y531D01*
X512Y533D01*
X514Y533D01*
X514Y535D01*
X516Y535D01*
X516Y537D01*
X518Y537D01*
X518Y539D01*
X520Y539D01*
X520Y541D01*
X522Y541D01*
X522Y543D01*
X524Y543D01*
X524Y545D01*
X526Y545D01*
X526Y547D01*
X528Y547D01*
X528Y549D01*
X530Y549D01*
X530Y551D01*
X532Y551D01*
X532Y553D01*
X534Y553D01*
X534Y555D01*
X536Y555D01*
X536Y557D01*
X538Y557D01*
X538Y559D01*
X540Y559D01*
X540Y561D01*
X542Y561D01*
X542Y563D01*
X544Y563D01*
X544Y565D01*
X546Y565D01*
X546Y567D01*
X548Y567D01*
X548Y569D01*
X550Y569D01*
X550Y571D01*
X552Y571D01*
X552Y573D01*
X554Y573D01*
X554Y575D01*
X556Y575D01*
X556Y577D01*
X558Y577D01*
X558Y579D01*
X560Y579D01*
X560Y581D01*
X562Y581D01*
X562Y583D01*
X564Y583D01*
X564Y585D01*
X566Y585D01*
X566Y587D01*
X568Y587D01*
X568Y589D01*
X570Y589D01*
X570Y591D01*
X572Y591D01*
X572Y593D01*
X574Y593D01*
X574Y595D01*
X576Y595D01*
X576Y597D01*
X578Y597D01*
X578Y599D01*
X580Y599D01*
X580Y601D01*
X582Y601D01*
X582Y603D01*
X584Y603D01*
X584Y605D01*
X586Y605D01*
X586Y607D01*
X588Y607D01*
X588Y609D01*
X590Y609D01*
X590Y611D01*
X592Y611D01*
X592Y613D01*
X594Y613D01*
X594Y615D01*
X596Y615D01*
X596Y617D01*
X598Y617D01*
X598Y619D01*
X600Y619D01*
X600Y621D01*
X602Y621D01*
X602Y623D01*
X604Y623D01*
X604Y625D01*
X606Y625D01*
X606Y627D01*
X608Y627D01*
X608Y629D01*
X610Y629D01*
X610Y631D01*
X612Y631D01*
X612Y633D01*
X614Y633D01*
X614Y635D01*
X616Y635D01*
X616Y637D01*
X618Y637D01*
X618Y639D01*
X620Y639D01*
X620Y641D01*
X622Y641D01*
X622Y643D01*
X624Y643D01*
X624Y645D01*
X626Y645D01*
X626Y647D01*
X484Y647D01*
G37*
D02*
G36*
X150Y495D02*
X150Y401D01*
X190Y401D01*
X190Y495D01*
X150Y495D01*
G37*
D02*
G36*
X384Y421D02*
X384Y413D01*
X386Y413D01*
X386Y403D01*
X388Y403D01*
X388Y393D01*
X390Y393D01*
X390Y383D01*
X392Y383D01*
X392Y373D01*
X394Y373D01*
X394Y363D01*
X396Y363D01*
X396Y353D01*
X398Y353D01*
X398Y343D01*
X400Y343D01*
X400Y333D01*
X402Y333D01*
X402Y323D01*
X404Y323D01*
X404Y311D01*
X406Y311D01*
X406Y301D01*
X408Y301D01*
X408Y291D01*
X410Y291D01*
X410Y281D01*
X412Y281D01*
X412Y279D01*
X414Y279D01*
X414Y277D01*
X420Y277D01*
X420Y275D01*
X424Y275D01*
X424Y273D01*
X428Y273D01*
X428Y271D01*
X430Y271D01*
X430Y269D01*
X432Y269D01*
X432Y267D01*
X436Y267D01*
X436Y265D01*
X438Y265D01*
X438Y263D01*
X440Y263D01*
X440Y259D01*
X442Y259D01*
X442Y257D01*
X444Y257D01*
X444Y255D01*
X446Y255D01*
X446Y251D01*
X448Y251D01*
X448Y247D01*
X450Y247D01*
X450Y241D01*
X452Y241D01*
X452Y223D01*
X450Y223D01*
X450Y217D01*
X448Y217D01*
X448Y213D01*
X446Y213D01*
X446Y209D01*
X444Y209D01*
X444Y205D01*
X442Y205D01*
X442Y203D01*
X440Y203D01*
X440Y201D01*
X438Y201D01*
X438Y199D01*
X436Y199D01*
X436Y197D01*
X626Y197D01*
X626Y199D01*
X624Y199D01*
X624Y201D01*
X622Y201D01*
X622Y203D01*
X620Y203D01*
X620Y205D01*
X618Y205D01*
X618Y207D01*
X616Y207D01*
X616Y209D01*
X614Y209D01*
X614Y211D01*
X612Y211D01*
X612Y213D01*
X610Y213D01*
X610Y215D01*
X608Y215D01*
X608Y217D01*
X606Y217D01*
X606Y219D01*
X604Y219D01*
X604Y221D01*
X602Y221D01*
X602Y223D01*
X600Y223D01*
X600Y225D01*
X598Y225D01*
X598Y227D01*
X596Y227D01*
X596Y229D01*
X594Y229D01*
X594Y231D01*
X592Y231D01*
X592Y233D01*
X590Y233D01*
X590Y235D01*
X588Y235D01*
X588Y237D01*
X586Y237D01*
X586Y239D01*
X584Y239D01*
X584Y241D01*
X582Y241D01*
X582Y243D01*
X580Y243D01*
X580Y245D01*
X578Y245D01*
X578Y247D01*
X576Y247D01*
X576Y249D01*
X574Y249D01*
X574Y251D01*
X572Y251D01*
X572Y253D01*
X570Y253D01*
X570Y255D01*
X568Y255D01*
X568Y257D01*
X566Y257D01*
X566Y259D01*
X564Y259D01*
X564Y261D01*
X562Y261D01*
X562Y263D01*
X560Y263D01*
X560Y265D01*
X558Y265D01*
X558Y267D01*
X556Y267D01*
X556Y269D01*
X554Y269D01*
X554Y271D01*
X552Y271D01*
X552Y273D01*
X550Y273D01*
X550Y275D01*
X548Y275D01*
X548Y277D01*
X546Y277D01*
X546Y279D01*
X544Y279D01*
X544Y281D01*
X542Y281D01*
X542Y283D01*
X540Y283D01*
X540Y285D01*
X538Y285D01*
X538Y287D01*
X536Y287D01*
X536Y289D01*
X534Y289D01*
X534Y291D01*
X532Y291D01*
X532Y293D01*
X530Y293D01*
X530Y295D01*
X528Y295D01*
X528Y297D01*
X526Y297D01*
X526Y299D01*
X524Y299D01*
X524Y301D01*
X522Y301D01*
X522Y303D01*
X520Y303D01*
X520Y305D01*
X518Y305D01*
X518Y307D01*
X516Y307D01*
X516Y309D01*
X514Y309D01*
X514Y311D01*
X512Y311D01*
X512Y313D01*
X510Y313D01*
X510Y315D01*
X508Y315D01*
X508Y317D01*
X506Y317D01*
X506Y319D01*
X504Y319D01*
X504Y321D01*
X502Y321D01*
X502Y323D01*
X500Y323D01*
X500Y325D01*
X498Y325D01*
X498Y327D01*
X496Y327D01*
X496Y329D01*
X494Y329D01*
X494Y331D01*
X492Y331D01*
X492Y333D01*
X490Y333D01*
X490Y335D01*
X488Y335D01*
X488Y337D01*
X486Y337D01*
X486Y339D01*
X484Y339D01*
X484Y341D01*
X482Y341D01*
X482Y343D01*
X480Y343D01*
X480Y345D01*
X478Y345D01*
X478Y347D01*
X476Y347D01*
X476Y349D01*
X474Y349D01*
X474Y351D01*
X472Y351D01*
X472Y353D01*
X470Y353D01*
X470Y355D01*
X468Y355D01*
X468Y357D01*
X466Y357D01*
X466Y359D01*
X464Y359D01*
X464Y361D01*
X462Y361D01*
X462Y363D01*
X460Y363D01*
X460Y365D01*
X458Y365D01*
X458Y367D01*
X456Y367D01*
X456Y369D01*
X454Y369D01*
X454Y371D01*
X452Y371D01*
X452Y373D01*
X450Y373D01*
X450Y375D01*
X448Y375D01*
X448Y377D01*
X446Y377D01*
X446Y379D01*
X444Y379D01*
X444Y381D01*
X442Y381D01*
X442Y383D01*
X440Y383D01*
X440Y385D01*
X438Y385D01*
X438Y387D01*
X436Y387D01*
X436Y389D01*
X434Y389D01*
X434Y391D01*
X432Y391D01*
X432Y393D01*
X430Y393D01*
X430Y395D01*
X428Y395D01*
X428Y397D01*
X426Y397D01*
X426Y399D01*
X424Y399D01*
X424Y401D01*
X422Y401D01*
X422Y403D01*
X420Y403D01*
X420Y405D01*
X418Y405D01*
X418Y407D01*
X416Y407D01*
X416Y409D01*
X414Y409D01*
X414Y411D01*
X412Y411D01*
X412Y413D01*
X410Y413D01*
X410Y415D01*
X408Y415D01*
X408Y417D01*
X406Y417D01*
X406Y419D01*
X404Y419D01*
X404Y421D01*
X384Y421D01*
G37*
D02*
G36*
X112Y401D02*
X112Y399D01*
X354Y399D01*
X354Y401D01*
X112Y401D01*
G37*
D02*
G36*
X112Y401D02*
X112Y399D01*
X354Y399D01*
X354Y401D01*
X112Y401D01*
G37*
D02*
G36*
X112Y399D02*
X112Y397D01*
X110Y397D01*
X110Y389D01*
X108Y389D01*
X108Y383D01*
X106Y383D01*
X106Y375D01*
X104Y375D01*
X104Y369D01*
X284Y369D01*
X284Y291D01*
X214Y291D01*
X214Y271D01*
X216Y271D01*
X216Y267D01*
X218Y267D01*
X218Y263D01*
X220Y263D01*
X220Y259D01*
X222Y259D01*
X222Y255D01*
X224Y255D01*
X224Y253D01*
X226Y253D01*
X226Y249D01*
X228Y249D01*
X228Y245D01*
X230Y245D01*
X230Y241D01*
X232Y241D01*
X232Y237D01*
X234Y237D01*
X234Y233D01*
X236Y233D01*
X236Y229D01*
X238Y229D01*
X238Y225D01*
X240Y225D01*
X240Y221D01*
X242Y221D01*
X242Y217D01*
X244Y217D01*
X244Y207D01*
X242Y207D01*
X242Y203D01*
X240Y203D01*
X240Y199D01*
X238Y199D01*
X238Y195D01*
X236Y195D01*
X236Y191D01*
X234Y191D01*
X234Y187D01*
X232Y187D01*
X232Y185D01*
X394Y185D01*
X394Y187D01*
X388Y187D01*
X388Y189D01*
X384Y189D01*
X384Y191D01*
X382Y191D01*
X382Y193D01*
X378Y193D01*
X378Y195D01*
X376Y195D01*
X376Y197D01*
X374Y197D01*
X374Y199D01*
X372Y199D01*
X372Y201D01*
X370Y201D01*
X370Y203D01*
X368Y203D01*
X368Y205D01*
X366Y205D01*
X366Y207D01*
X364Y207D01*
X364Y211D01*
X362Y211D01*
X362Y215D01*
X360Y215D01*
X360Y221D01*
X358Y221D01*
X358Y243D01*
X360Y243D01*
X360Y249D01*
X362Y249D01*
X362Y251D01*
X364Y251D01*
X364Y255D01*
X366Y255D01*
X366Y259D01*
X368Y259D01*
X368Y261D01*
X370Y261D01*
X370Y263D01*
X372Y263D01*
X372Y265D01*
X374Y265D01*
X374Y267D01*
X376Y267D01*
X376Y269D01*
X378Y269D01*
X378Y289D01*
X376Y289D01*
X376Y299D01*
X374Y299D01*
X374Y309D01*
X372Y309D01*
X372Y319D01*
X370Y319D01*
X370Y329D01*
X368Y329D01*
X368Y339D01*
X366Y339D01*
X366Y349D01*
X364Y349D01*
X364Y359D01*
X362Y359D01*
X362Y369D01*
X360Y369D01*
X360Y379D01*
X358Y379D01*
X358Y389D01*
X356Y389D01*
X356Y399D01*
X112Y399D01*
G37*
D02*
G36*
X102Y369D02*
X102Y349D01*
X128Y349D01*
X128Y369D01*
X102Y369D01*
G37*
D02*
G36*
X748Y317D02*
X748Y315D01*
X746Y315D01*
X746Y313D01*
X744Y313D01*
X744Y311D01*
X742Y311D01*
X742Y309D01*
X740Y309D01*
X740Y307D01*
X738Y307D01*
X738Y305D01*
X736Y305D01*
X736Y303D01*
X734Y303D01*
X734Y301D01*
X732Y301D01*
X732Y299D01*
X730Y299D01*
X730Y297D01*
X728Y297D01*
X728Y295D01*
X726Y295D01*
X726Y293D01*
X724Y293D01*
X724Y291D01*
X722Y291D01*
X722Y289D01*
X720Y289D01*
X720Y287D01*
X718Y287D01*
X718Y285D01*
X716Y285D01*
X716Y283D01*
X714Y283D01*
X714Y281D01*
X712Y281D01*
X712Y279D01*
X710Y279D01*
X710Y277D01*
X708Y277D01*
X708Y275D01*
X706Y275D01*
X706Y273D01*
X704Y273D01*
X704Y271D01*
X702Y271D01*
X702Y269D01*
X700Y269D01*
X700Y267D01*
X698Y267D01*
X698Y265D01*
X696Y265D01*
X696Y263D01*
X694Y263D01*
X694Y261D01*
X692Y261D01*
X692Y259D01*
X690Y259D01*
X690Y257D01*
X688Y257D01*
X688Y255D01*
X686Y255D01*
X686Y253D01*
X684Y253D01*
X684Y251D01*
X682Y251D01*
X682Y249D01*
X680Y249D01*
X680Y247D01*
X678Y247D01*
X678Y245D01*
X676Y245D01*
X676Y243D01*
X674Y243D01*
X674Y241D01*
X672Y241D01*
X672Y239D01*
X670Y239D01*
X670Y237D01*
X668Y237D01*
X668Y235D01*
X666Y235D01*
X666Y233D01*
X664Y233D01*
X664Y231D01*
X662Y231D01*
X662Y229D01*
X660Y229D01*
X660Y227D01*
X658Y227D01*
X658Y225D01*
X656Y225D01*
X656Y223D01*
X654Y223D01*
X654Y221D01*
X652Y221D01*
X652Y219D01*
X650Y219D01*
X650Y217D01*
X648Y217D01*
X648Y215D01*
X646Y215D01*
X646Y213D01*
X644Y213D01*
X644Y211D01*
X642Y211D01*
X642Y209D01*
X640Y209D01*
X640Y207D01*
X638Y207D01*
X638Y205D01*
X636Y205D01*
X636Y203D01*
X634Y203D01*
X634Y201D01*
X632Y201D01*
X632Y199D01*
X630Y199D01*
X630Y197D01*
X772Y197D01*
X772Y199D01*
X770Y199D01*
X770Y201D01*
X768Y201D01*
X768Y203D01*
X766Y203D01*
X766Y205D01*
X764Y205D01*
X764Y207D01*
X762Y207D01*
X762Y209D01*
X760Y209D01*
X760Y211D01*
X758Y211D01*
X758Y213D01*
X756Y213D01*
X756Y215D01*
X754Y215D01*
X754Y217D01*
X752Y217D01*
X752Y219D01*
X750Y219D01*
X750Y221D01*
X748Y221D01*
X748Y223D01*
X746Y223D01*
X746Y225D01*
X744Y225D01*
X744Y227D01*
X742Y227D01*
X742Y229D01*
X740Y229D01*
X740Y231D01*
X738Y231D01*
X738Y233D01*
X736Y233D01*
X736Y235D01*
X734Y235D01*
X734Y237D01*
X732Y237D01*
X732Y239D01*
X734Y239D01*
X734Y241D01*
X736Y241D01*
X736Y243D01*
X738Y243D01*
X738Y245D01*
X740Y245D01*
X740Y247D01*
X742Y247D01*
X742Y249D01*
X744Y249D01*
X744Y251D01*
X746Y251D01*
X746Y253D01*
X748Y253D01*
X748Y255D01*
X750Y255D01*
X750Y257D01*
X752Y257D01*
X752Y259D01*
X754Y259D01*
X754Y261D01*
X756Y261D01*
X756Y263D01*
X758Y263D01*
X758Y265D01*
X760Y265D01*
X760Y267D01*
X762Y267D01*
X762Y269D01*
X764Y269D01*
X764Y271D01*
X766Y271D01*
X766Y273D01*
X768Y273D01*
X768Y275D01*
X770Y275D01*
X770Y277D01*
X772Y277D01*
X772Y279D01*
X774Y279D01*
X774Y281D01*
X776Y281D01*
X776Y283D01*
X778Y283D01*
X778Y285D01*
X780Y285D01*
X780Y287D01*
X782Y287D01*
X782Y289D01*
X784Y289D01*
X784Y291D01*
X786Y291D01*
X786Y293D01*
X788Y293D01*
X788Y295D01*
X790Y295D01*
X790Y297D01*
X792Y297D01*
X792Y299D01*
X794Y299D01*
X794Y301D01*
X796Y301D01*
X796Y303D01*
X798Y303D01*
X798Y305D01*
X800Y305D01*
X800Y307D01*
X802Y307D01*
X802Y309D01*
X804Y309D01*
X804Y311D01*
X806Y311D01*
X806Y313D01*
X808Y313D01*
X808Y315D01*
X810Y315D01*
X810Y317D01*
X748Y317D01*
G37*
D02*
G36*
X434Y197D02*
X434Y195D01*
X774Y195D01*
X774Y197D01*
X434Y197D01*
G37*
D02*
G36*
X434Y197D02*
X434Y195D01*
X774Y195D01*
X774Y197D01*
X434Y197D01*
G37*
D02*
G36*
X432Y195D02*
X432Y193D01*
X428Y193D01*
X428Y191D01*
X424Y191D01*
X424Y189D01*
X422Y189D01*
X422Y187D01*
X416Y187D01*
X416Y185D01*
X784Y185D01*
X784Y187D01*
X782Y187D01*
X782Y189D01*
X780Y189D01*
X780Y191D01*
X778Y191D01*
X778Y193D01*
X776Y193D01*
X776Y195D01*
X432Y195D01*
G37*
D02*
G36*
X232Y185D02*
X232Y183D01*
X786Y183D01*
X786Y185D01*
X232Y185D01*
G37*
D02*
G36*
X232Y185D02*
X232Y183D01*
X786Y183D01*
X786Y185D01*
X232Y185D01*
G37*
D02*
G36*
X230Y183D02*
X230Y179D01*
X228Y179D01*
X228Y175D01*
X226Y175D01*
X226Y171D01*
X224Y171D01*
X224Y167D01*
X222Y167D01*
X222Y163D01*
X220Y163D01*
X220Y159D01*
X810Y159D01*
X810Y161D01*
X808Y161D01*
X808Y163D01*
X806Y163D01*
X806Y165D01*
X804Y165D01*
X804Y167D01*
X802Y167D01*
X802Y169D01*
X800Y169D01*
X800Y171D01*
X798Y171D01*
X798Y173D01*
X796Y173D01*
X796Y175D01*
X794Y175D01*
X794Y177D01*
X792Y177D01*
X792Y179D01*
X790Y179D01*
X790Y181D01*
X788Y181D01*
X788Y183D01*
X230Y183D01*
G37*
D02*
G36*
X218Y159D02*
X218Y157D01*
X924Y157D01*
X924Y159D01*
X218Y159D01*
G37*
D02*
G36*
X218Y159D02*
X218Y157D01*
X924Y157D01*
X924Y159D01*
X218Y159D01*
G37*
D02*
G36*
X218Y157D02*
X218Y155D01*
X216Y155D01*
X216Y151D01*
X214Y151D01*
X214Y147D01*
X212Y147D01*
X212Y143D01*
X210Y143D01*
X210Y139D01*
X208Y139D01*
X208Y135D01*
X206Y135D01*
X206Y131D01*
X204Y131D01*
X204Y127D01*
X202Y127D01*
X202Y123D01*
X200Y123D01*
X200Y121D01*
X198Y121D01*
X198Y119D01*
X194Y119D01*
X194Y117D01*
X166Y117D01*
X166Y101D01*
X416Y101D01*
X416Y99D01*
X422Y99D01*
X422Y97D01*
X426Y97D01*
X426Y95D01*
X428Y95D01*
X428Y93D01*
X432Y93D01*
X432Y91D01*
X434Y91D01*
X434Y89D01*
X436Y89D01*
X436Y87D01*
X438Y87D01*
X438Y85D01*
X440Y85D01*
X440Y83D01*
X442Y83D01*
X442Y81D01*
X444Y81D01*
X444Y77D01*
X446Y77D01*
X446Y73D01*
X448Y73D01*
X448Y69D01*
X450Y69D01*
X450Y63D01*
X452Y63D01*
X452Y41D01*
X924Y41D01*
X924Y157D01*
X218Y157D01*
G37*
D02*
G36*
X166Y101D02*
X166Y97D01*
X170Y97D01*
X170Y95D01*
X172Y95D01*
X172Y93D01*
X176Y93D01*
X176Y91D01*
X178Y91D01*
X178Y89D01*
X180Y89D01*
X180Y87D01*
X182Y87D01*
X182Y85D01*
X184Y85D01*
X184Y83D01*
X186Y83D01*
X186Y81D01*
X188Y81D01*
X188Y77D01*
X190Y77D01*
X190Y73D01*
X192Y73D01*
X192Y69D01*
X194Y69D01*
X194Y63D01*
X196Y63D01*
X196Y41D01*
X358Y41D01*
X358Y65D01*
X360Y65D01*
X360Y71D01*
X362Y71D01*
X362Y75D01*
X364Y75D01*
X364Y79D01*
X366Y79D01*
X366Y81D01*
X368Y81D01*
X368Y83D01*
X370Y83D01*
X370Y85D01*
X372Y85D01*
X372Y87D01*
X374Y87D01*
X374Y89D01*
X376Y89D01*
X376Y91D01*
X378Y91D01*
X378Y93D01*
X380Y93D01*
X380Y95D01*
X384Y95D01*
X384Y97D01*
X388Y97D01*
X388Y99D01*
X394Y99D01*
X394Y101D01*
X166Y101D01*
G37*
D02*
G36*
X186Y205D02*
X186Y203D01*
X184Y203D01*
X184Y201D01*
X182Y201D01*
X182Y199D01*
X180Y199D01*
X180Y197D01*
X178Y197D01*
X178Y195D01*
X176Y195D01*
X176Y193D01*
X172Y193D01*
X172Y191D01*
X170Y191D01*
X170Y189D01*
X166Y189D01*
X166Y187D01*
X160Y187D01*
X160Y185D01*
X198Y185D01*
X198Y189D01*
X200Y189D01*
X200Y193D01*
X202Y193D01*
X202Y197D01*
X204Y197D01*
X204Y201D01*
X206Y201D01*
X206Y205D01*
X186Y205D01*
G37*
D02*
G36*
X40Y195D02*
X40Y185D01*
X138Y185D01*
X138Y187D01*
X132Y187D01*
X132Y189D01*
X128Y189D01*
X128Y191D01*
X126Y191D01*
X126Y193D01*
X122Y193D01*
X122Y195D01*
X40Y195D01*
G37*
D02*
G36*
X40Y185D02*
X40Y183D01*
X196Y183D01*
X196Y185D01*
X40Y185D01*
G37*
D02*
G36*
X40Y185D02*
X40Y183D01*
X196Y183D01*
X196Y185D01*
X40Y185D01*
G37*
D02*
G36*
X40Y183D02*
X40Y173D01*
X110Y173D01*
X110Y151D01*
X130Y151D01*
X130Y149D01*
X180Y149D01*
X180Y153D01*
X182Y153D01*
X182Y157D01*
X184Y157D01*
X184Y161D01*
X186Y161D01*
X186Y165D01*
X188Y165D01*
X188Y169D01*
X190Y169D01*
X190Y173D01*
X192Y173D01*
X192Y177D01*
X194Y177D01*
X194Y181D01*
X196Y181D01*
X196Y183D01*
X40Y183D01*
G37*
D02*
G36*
X857Y769D02*
X894Y769D01*
X894Y741D01*
X857Y741D01*
X857Y769D01*
G37*
D02*
G36*
X890Y744D02*
X918Y744D01*
X918Y707D01*
X890Y707D01*
X890Y744D01*
G37*
D02*
G36*
X744Y533D02*
X854Y533D01*
X854Y314D01*
X744Y314D01*
X744Y533D01*
G37*
D02*
G36*
X194Y759D02*
X230Y759D01*
X230Y732D01*
X194Y732D01*
X194Y759D01*
G37*
D02*
G36*
X208Y625D02*
X248Y625D01*
X248Y590D01*
X208Y590D01*
X208Y625D01*
G37*
D02*
G36*
X246Y349D02*
X284Y349D01*
X284Y314D01*
X246Y314D01*
X246Y349D01*
G37*
D02*
G36*
X230Y471D02*
X272Y471D01*
X272Y428D01*
X230Y428D01*
X230Y471D01*
G37*
D02*
G36*
X840Y422D02*
X628Y210D01*
X416Y422D01*
X628Y634D01*
X840Y422D01*
G37*
D02*
G54D20*
X443Y671D02*
X444Y671D01*
X442Y670D02*
X445Y670D01*
X441Y669D02*
X446Y669D01*
X440Y668D02*
X447Y668D01*
X439Y667D02*
X448Y667D01*
X438Y666D02*
X449Y666D01*
X437Y665D02*
X450Y665D01*
X436Y664D02*
X451Y664D01*
X435Y663D02*
X452Y663D01*
X434Y662D02*
X453Y662D01*
X433Y661D02*
X454Y661D01*
X432Y660D02*
X455Y660D01*
X431Y659D02*
X456Y659D01*
X430Y658D02*
X457Y658D01*
X429Y657D02*
X458Y657D01*
X428Y656D02*
X459Y656D01*
X427Y655D02*
X460Y655D01*
X426Y654D02*
X461Y654D01*
X425Y653D02*
X462Y653D01*
X424Y652D02*
X463Y652D01*
X423Y651D02*
X464Y651D01*
X422Y650D02*
X465Y650D01*
X421Y649D02*
X466Y649D01*
X420Y648D02*
X467Y648D01*
X419Y647D02*
X468Y647D01*
X418Y646D02*
X469Y646D01*
X417Y645D02*
X470Y645D01*
X416Y644D02*
X471Y644D01*
X415Y643D02*
X472Y643D01*
X414Y642D02*
X436Y642D01*
X451Y642D02*
X473Y642D01*
X413Y641D02*
X432Y641D01*
X455Y641D02*
X474Y641D01*
X412Y640D02*
X429Y640D01*
X458Y640D02*
X475Y640D01*
X411Y639D02*
X427Y639D01*
X460Y639D02*
X476Y639D01*
X410Y638D02*
X425Y638D01*
X462Y638D02*
X477Y638D01*
X409Y637D02*
X423Y637D01*
X463Y637D02*
X478Y637D01*
X408Y636D02*
X422Y636D01*
X465Y636D02*
X479Y636D01*
X407Y635D02*
X420Y635D01*
X466Y635D02*
X480Y635D01*
X406Y634D02*
X419Y634D01*
X467Y634D02*
X481Y634D01*
X405Y633D02*
X418Y633D01*
X469Y633D02*
X482Y633D01*
X404Y632D02*
X417Y632D01*
X470Y632D02*
X483Y632D01*
X403Y631D02*
X416Y631D01*
X471Y631D02*
X484Y631D01*
X402Y630D02*
X415Y630D01*
X472Y630D02*
X485Y630D01*
X401Y629D02*
X414Y629D01*
X472Y629D02*
X486Y629D01*
X400Y628D02*
X414Y628D01*
X473Y628D02*
X487Y628D01*
X399Y627D02*
X413Y627D01*
X474Y627D02*
X488Y627D01*
X398Y626D02*
X412Y626D01*
X475Y626D02*
X489Y626D01*
X397Y625D02*
X412Y625D01*
X475Y625D02*
X490Y625D01*
X396Y624D02*
X411Y624D01*
X476Y624D02*
X491Y624D01*
X395Y623D02*
X410Y623D01*
X476Y623D02*
X492Y623D01*
X394Y622D02*
X410Y622D01*
X477Y622D02*
X493Y622D01*
X393Y621D02*
X410Y621D01*
X477Y621D02*
X494Y621D01*
X392Y620D02*
X409Y620D01*
X478Y620D02*
X495Y620D01*
X391Y619D02*
X409Y619D01*
X478Y619D02*
X496Y619D01*
X390Y618D02*
X408Y618D01*
X478Y618D02*
X497Y618D01*
X389Y617D02*
X408Y617D01*
X479Y617D02*
X498Y617D01*
X388Y616D02*
X408Y616D01*
X479Y616D02*
X499Y616D01*
X387Y615D02*
X407Y615D01*
X479Y615D02*
X500Y615D01*
X386Y614D02*
X407Y614D01*
X479Y614D02*
X501Y614D01*
X385Y613D02*
X407Y613D01*
X480Y613D02*
X502Y613D01*
X384Y612D02*
X407Y612D01*
X480Y612D02*
X503Y612D01*
X383Y611D02*
X407Y611D01*
X480Y611D02*
X504Y611D01*
X382Y610D02*
X407Y610D01*
X480Y610D02*
X505Y610D01*
X381Y609D02*
X406Y609D01*
X480Y609D02*
X506Y609D01*
X380Y608D02*
X406Y608D01*
X480Y608D02*
X507Y608D01*
X379Y607D02*
X406Y607D01*
X480Y607D02*
X508Y607D01*
X378Y606D02*
X406Y606D01*
X480Y606D02*
X508Y606D01*
X379Y605D02*
X406Y605D01*
X480Y605D02*
X507Y605D01*
X380Y604D02*
X406Y604D01*
X480Y604D02*
X506Y604D01*
X381Y603D02*
X407Y603D01*
X480Y603D02*
X505Y603D01*
X382Y602D02*
X407Y602D01*
X480Y602D02*
X504Y602D01*
X383Y601D02*
X407Y601D01*
X480Y601D02*
X503Y601D01*
X384Y600D02*
X407Y600D01*
X480Y600D02*
X502Y600D01*
X385Y599D02*
X407Y599D01*
X480Y599D02*
X501Y599D01*
X386Y598D02*
X407Y598D01*
X479Y598D02*
X500Y598D01*
X387Y597D02*
X408Y597D01*
X479Y597D02*
X499Y597D01*
X388Y596D02*
X408Y596D01*
X479Y596D02*
X498Y596D01*
X389Y595D02*
X408Y595D01*
X479Y595D02*
X497Y595D01*
X390Y594D02*
X409Y594D01*
X478Y594D02*
X496Y594D01*
X391Y593D02*
X409Y593D01*
X478Y593D02*
X495Y593D01*
X392Y592D02*
X409Y592D01*
X477Y592D02*
X494Y592D01*
X393Y591D02*
X410Y591D01*
X477Y591D02*
X493Y591D01*
X394Y590D02*
X410Y590D01*
X476Y590D02*
X492Y590D01*
X395Y589D02*
X411Y589D01*
X476Y589D02*
X491Y589D01*
X396Y588D02*
X411Y588D01*
X475Y588D02*
X490Y588D01*
X397Y587D02*
X412Y587D01*
X475Y587D02*
X489Y587D01*
X398Y586D02*
X413Y586D01*
X474Y586D02*
X488Y586D01*
X399Y585D02*
X413Y585D01*
X473Y585D02*
X487Y585D01*
X400Y584D02*
X414Y584D01*
X473Y584D02*
X486Y584D01*
X401Y583D02*
X415Y583D01*
X472Y583D02*
X485Y583D01*
X402Y582D02*
X416Y582D01*
X471Y582D02*
X484Y582D01*
X403Y581D02*
X417Y581D01*
X470Y581D02*
X483Y581D01*
X404Y580D02*
X418Y580D01*
X469Y580D02*
X482Y580D01*
X405Y579D02*
X419Y579D01*
X468Y579D02*
X481Y579D01*
X406Y578D02*
X420Y578D01*
X467Y578D02*
X480Y578D01*
X407Y577D02*
X421Y577D01*
X466Y577D02*
X479Y577D01*
X408Y576D02*
X422Y576D01*
X464Y576D02*
X478Y576D01*
X409Y575D02*
X424Y575D01*
X463Y575D02*
X477Y575D01*
X410Y574D02*
X426Y574D01*
X461Y574D02*
X476Y574D01*
X411Y573D02*
X428Y573D01*
X459Y573D02*
X475Y573D01*
X412Y572D02*
X430Y572D01*
X456Y572D02*
X474Y572D01*
X413Y571D02*
X434Y571D01*
X453Y571D02*
X473Y571D01*
X414Y570D02*
X439Y570D01*
X448Y570D02*
X472Y570D01*
X415Y569D02*
X471Y569D01*
X416Y568D02*
X470Y568D01*
X417Y567D02*
X469Y567D01*
X418Y566D02*
X468Y566D01*
X419Y565D02*
X467Y565D01*
X420Y564D02*
X466Y564D01*
X421Y563D02*
X465Y563D01*
X422Y562D02*
X464Y562D01*
X423Y561D02*
X463Y561D01*
X424Y560D02*
X462Y560D01*
X425Y559D02*
X461Y559D01*
X426Y558D02*
X460Y558D01*
X427Y557D02*
X459Y557D01*
X428Y556D02*
X458Y556D01*
X429Y555D02*
X457Y555D01*
X430Y554D02*
X456Y554D01*
X431Y553D02*
X455Y553D01*
X432Y552D02*
X454Y552D01*
X433Y551D02*
X453Y551D01*
X434Y550D02*
X452Y550D01*
X435Y549D02*
X451Y549D01*
X436Y548D02*
X450Y548D01*
X437Y547D02*
X449Y547D01*
X438Y546D02*
X448Y546D01*
X439Y545D02*
X447Y545D01*
X440Y544D02*
X446Y544D01*
X441Y543D02*
X445Y543D01*
X442Y542D02*
X444Y542D01*
X443Y541D02*
X443Y541D01*
X811Y304D02*
X811Y304D01*
X810Y303D02*
X812Y303D01*
X809Y302D02*
X813Y302D01*
X808Y301D02*
X814Y301D01*
X807Y300D02*
X815Y300D01*
X806Y299D02*
X816Y299D01*
X805Y298D02*
X817Y298D01*
X804Y297D02*
X818Y297D01*
X803Y296D02*
X819Y296D01*
X802Y295D02*
X820Y295D01*
X801Y294D02*
X821Y294D01*
X800Y293D02*
X822Y293D01*
X799Y292D02*
X823Y292D01*
X798Y291D02*
X824Y291D01*
X797Y290D02*
X825Y290D01*
X796Y289D02*
X826Y289D01*
X795Y288D02*
X827Y288D01*
X794Y287D02*
X828Y287D01*
X793Y286D02*
X829Y286D01*
X792Y285D02*
X830Y285D01*
X791Y284D02*
X831Y284D01*
X790Y283D02*
X832Y283D01*
X789Y282D02*
X833Y282D01*
X788Y281D02*
X834Y281D01*
X787Y280D02*
X835Y280D01*
X786Y279D02*
X836Y279D01*
X785Y278D02*
X837Y278D01*
X784Y277D02*
X838Y277D01*
X783Y276D02*
X839Y276D01*
X782Y275D02*
X807Y275D01*
X815Y275D02*
X840Y275D01*
X781Y274D02*
X801Y274D01*
X820Y274D02*
X841Y274D01*
X780Y273D02*
X798Y273D01*
X824Y273D02*
X842Y273D01*
X779Y272D02*
X796Y272D01*
X826Y272D02*
X843Y272D01*
X778Y271D02*
X793Y271D01*
X828Y271D02*
X844Y271D01*
X777Y270D02*
X792Y270D01*
X830Y270D02*
X845Y270D01*
X776Y269D02*
X790Y269D01*
X832Y269D02*
X846Y269D01*
X775Y268D02*
X789Y268D01*
X833Y268D02*
X847Y268D01*
X774Y267D02*
X787Y267D01*
X834Y267D02*
X848Y267D01*
X773Y266D02*
X786Y266D01*
X836Y266D02*
X849Y266D01*
X772Y265D02*
X785Y265D01*
X837Y265D02*
X850Y265D01*
X771Y264D02*
X784Y264D01*
X838Y264D02*
X851Y264D01*
X770Y263D02*
X783Y263D01*
X839Y263D02*
X852Y263D01*
X769Y262D02*
X782Y262D01*
X839Y262D02*
X853Y262D01*
X768Y261D02*
X782Y261D01*
X840Y261D02*
X854Y261D01*
X767Y260D02*
X781Y260D01*
X841Y260D02*
X855Y260D01*
X766Y259D02*
X780Y259D01*
X842Y259D02*
X856Y259D01*
X765Y258D02*
X779Y258D01*
X842Y258D02*
X857Y258D01*
X764Y257D02*
X779Y257D01*
X843Y257D02*
X858Y257D01*
X763Y256D02*
X778Y256D01*
X843Y256D02*
X859Y256D01*
X762Y255D02*
X778Y255D01*
X844Y255D02*
X860Y255D01*
X761Y254D02*
X777Y254D01*
X844Y254D02*
X861Y254D01*
X760Y253D02*
X777Y253D01*
X845Y253D02*
X862Y253D01*
X759Y252D02*
X776Y252D01*
X845Y252D02*
X863Y252D01*
X758Y251D02*
X776Y251D01*
X846Y251D02*
X864Y251D01*
X757Y250D02*
X776Y250D01*
X846Y250D02*
X865Y250D01*
X756Y249D02*
X775Y249D01*
X846Y249D02*
X866Y249D01*
X755Y248D02*
X775Y248D01*
X847Y248D02*
X867Y248D01*
X754Y247D02*
X775Y247D01*
X847Y247D02*
X868Y247D01*
X753Y246D02*
X775Y246D01*
X847Y246D02*
X869Y246D01*
X752Y245D02*
X774Y245D01*
X847Y245D02*
X870Y245D01*
X751Y244D02*
X774Y244D01*
X847Y244D02*
X871Y244D01*
X750Y243D02*
X774Y243D01*
X848Y243D02*
X872Y243D01*
X749Y242D02*
X774Y242D01*
X848Y242D02*
X873Y242D01*
X748Y241D02*
X774Y241D01*
X848Y241D02*
X874Y241D01*
X747Y240D02*
X774Y240D01*
X848Y240D02*
X875Y240D01*
X746Y239D02*
X774Y239D01*
X848Y239D02*
X876Y239D01*
X746Y238D02*
X774Y238D01*
X848Y238D02*
X875Y238D01*
X747Y237D02*
X774Y237D01*
X848Y237D02*
X874Y237D01*
X748Y236D02*
X774Y236D01*
X848Y236D02*
X873Y236D01*
X749Y235D02*
X774Y235D01*
X848Y235D02*
X872Y235D01*
X750Y234D02*
X774Y234D01*
X848Y234D02*
X871Y234D01*
X751Y233D02*
X774Y233D01*
X847Y233D02*
X870Y233D01*
X752Y232D02*
X775Y232D01*
X847Y232D02*
X869Y232D01*
X753Y231D02*
X775Y231D01*
X847Y231D02*
X868Y231D01*
X754Y230D02*
X775Y230D01*
X847Y230D02*
X867Y230D01*
X755Y229D02*
X775Y229D01*
X847Y229D02*
X866Y229D01*
X756Y228D02*
X776Y228D01*
X846Y228D02*
X865Y228D01*
X757Y227D02*
X776Y227D01*
X846Y227D02*
X864Y227D01*
X758Y226D02*
X776Y226D01*
X846Y226D02*
X863Y226D01*
X759Y225D02*
X777Y225D01*
X845Y225D02*
X862Y225D01*
X760Y224D02*
X777Y224D01*
X845Y224D02*
X861Y224D01*
X761Y223D02*
X777Y223D01*
X844Y223D02*
X860Y223D01*
X762Y222D02*
X778Y222D01*
X844Y222D02*
X859Y222D01*
X763Y221D02*
X778Y221D01*
X843Y221D02*
X858Y221D01*
X764Y220D02*
X779Y220D01*
X843Y220D02*
X857Y220D01*
X765Y219D02*
X780Y219D01*
X842Y219D02*
X856Y219D01*
X766Y218D02*
X780Y218D01*
X841Y218D02*
X855Y218D01*
X767Y217D02*
X781Y217D01*
X841Y217D02*
X854Y217D01*
X768Y216D02*
X782Y216D01*
X840Y216D02*
X853Y216D01*
X769Y215D02*
X783Y215D01*
X839Y215D02*
X852Y215D01*
X770Y214D02*
X784Y214D01*
X838Y214D02*
X851Y214D01*
X771Y213D02*
X784Y213D01*
X837Y213D02*
X850Y213D01*
X772Y212D02*
X786Y212D01*
X836Y212D02*
X849Y212D01*
X773Y211D02*
X787Y211D01*
X835Y211D02*
X848Y211D01*
X774Y210D02*
X788Y210D01*
X834Y210D02*
X847Y210D01*
X775Y209D02*
X789Y209D01*
X833Y209D02*
X846Y209D01*
X776Y208D02*
X791Y208D01*
X831Y208D02*
X845Y208D01*
X777Y207D02*
X792Y207D01*
X829Y207D02*
X844Y207D01*
X778Y206D02*
X794Y206D01*
X828Y206D02*
X843Y206D01*
X779Y205D02*
X796Y205D01*
X825Y205D02*
X842Y205D01*
X780Y204D02*
X799Y204D01*
X823Y204D02*
X841Y204D01*
X781Y203D02*
X803Y203D01*
X819Y203D02*
X840Y203D01*
X782Y202D02*
X839Y202D01*
X783Y201D02*
X838Y201D01*
X784Y200D02*
X837Y200D01*
X785Y199D02*
X836Y199D01*
X786Y198D02*
X835Y198D01*
X787Y197D02*
X834Y197D01*
X788Y196D02*
X833Y196D01*
X789Y195D02*
X832Y195D01*
X790Y194D02*
X831Y194D01*
X791Y193D02*
X830Y193D01*
X792Y192D02*
X829Y192D01*
X793Y191D02*
X828Y191D01*
X794Y190D02*
X827Y190D01*
X795Y189D02*
X826Y189D01*
X796Y188D02*
X825Y188D01*
X797Y187D02*
X824Y187D01*
X798Y186D02*
X823Y186D01*
X799Y185D02*
X822Y185D01*
X800Y184D02*
X821Y184D01*
X801Y183D02*
X820Y183D01*
X802Y182D02*
X819Y182D01*
X803Y181D02*
X818Y181D01*
X804Y180D02*
X817Y180D01*
X805Y179D02*
X816Y179D01*
X806Y178D02*
X815Y178D01*
X807Y177D02*
X814Y177D01*
X808Y176D02*
X813Y176D01*
X809Y175D02*
X812Y175D01*
X810Y174D02*
X811Y174D01*
D02*
G04 End of Copper1*
M02*